<?xml version="1.0" encoding="UTF-8" standalone="no"?> <!-- Created with Inkscape (http://www.inkscape.org/) --> <svg xmlns:dc="http://purl.org/dc/elements/1.1/" xmlns:cc="http://creativecommons.org/ns#" xmlns:rdf="http://www.w3.org/1999/02/22-rdf-syntax-ns#" xmlns:svg="http://www.w3.org/2000/svg" xmlns="http://www.w3.org/2000/svg" xmlns:sodipodi="http://sodipodi.sourceforge.net/DTD/sodipodi-0.dtd" xmlns:inkscape="http://www.inkscape.org/namespaces/inkscape" id="svg2" version="1.1" inkscape:version="0.91 r13725" xml:space="preserve" width="957.28156" height="435.71875" viewBox="0 0 957.28155 435.71875" sodipodi:docname="logo_schmal_oc.svg" inkscape:export-filename="/home/harry/Doc/fhm/Arbeit/projekt_ssystems/3_Entwicklung/4_Diagramme/Logos/ssystems/logo_schmal_oc.png" inkscape:export-xdpi="7.4272819" inkscape:export-ydpi="7.4272819"><metadata id="metadata8"></metadata><defs id="defs6"></defs><g id="g10" inkscape:groupmode="layer" inkscape:label="ink_ext_XXXXXX" transform="matrix(1.25,0,0,-1.25,2.7997364e-4,504.40375)" style="display:inline"><g id="g12" transform="scale(0.1,0.1)" style="display:inline"><path d="m 1369.38,3089.91 c 0,0 20.59,-1.32 59.22,-3.71 36.41,-1.94 99.49,-6.96 177.79,-14.25 152.47,-16.36 370.29,-45.57 625.08,-113.98 127.26,-34.32 263.74,-78.1 404.48,-136.01 140.4,-58.81 285.73,-130.17 427.11,-223.89 140.62,-93.94 280.02,-208.31 392.74,-359.18 55.89,-75.37 104.62,-160.02 138.11,-253.16 33.63,-92.84 50.94,-194.31 46.83,-294.42 l -0.34,-8.14 -0.18,-1.93 -0.39,-3.85 -0.72,-7.7 -1.53,-15.41 -3.34,-31.76 c -4.51,-26.36 -8.63,-54.12 -14.72,-78.71 -12.27,-47.81 -28.26,-94.06 -48.26,-137.69 -40.01,-87.44 -93.68,-164.42 -153.31,-231.6 -120.11,-134.42 -262.51,-230.78 -404.24,-307.54 -142.44,-76.47 -286.92,-131.21 -425.25,-174.3 -138.69,-42.26 -272,-71.37 -395.5,-92.32 -247.28,-41.62 -455.21,-49.26 -599.86,-50.88 -72.48,0.19 -129.24,0.84 -167.93,2.75 -38.71,1.39 -59.3,2.13 -59.3,2.13 0,0 20.57,1.31 59.22,3.71 38.57,1.97 95.08,6.95 166.75,13.89 143,15.76 347.33,43.92 583.6,108.28 117.95,32.27 243.84,73.22 371.94,126.6 127.6,54.12 258.41,119.45 381.23,202.17 122.23,82.44 238.79,181.76 324.18,299.73 85.72,117.3 135.23,252.75 126.34,382.57 -8.04,130.07 -71.48,250.71 -164.24,351.83 -92.77,101.49 -212.33,182.8 -335.68,248.11 -123.84,65.47 -253.79,114.15 -379.31,152.55 -126.09,37.77 -248.8,64.07 -362.98,82.96 -228.74,37.61 -423.21,44.19 -558.39,45.22 -65.81,-0.57 -116.05,-1.23 -156.87,-3.1 -38.69,-1.4 -59.33,-2.12 -59.33,-2.12 -144.55,-5.22 -265.97,107.71 -271.19,252.28 -5.25,144.58 107.73,265.98 252.3,271.2 8.6,0.32 17.51,0.19 25.94,-0.33" style="opacity:1;fill:#4cb0da;fill-opacity:1;fill-rule:nonzero;stroke:none" id="path32" inkscape:connector-curvature="0"></path><path d="m 2271.96,1494.65 c 0,0 -20.58,1.31 -59.22,3.71 -36.43,1.94 -99.49,6.98 -177.78,14.26 -152.5,16.35 -370.31,45.57 -625.1,113.95 -127.29,34.31 -263.77,78.08 -404.52,136.01 -140.383,58.8 -285.715,130.16 -427.086,223.89 -140.649,93.94 -280.047,208.34 -392.758,359.23 -55.93,75.36 -104.6288,160.02 -138.078,253.16 -33.6641,92.84 -50.92972,194.33 -46.82425,294.43 l 0.355469,8.14 0.144531,1.92 0.40625,3.88 0.74219,7.68 1.50781,15.41 3.33984,31.77 c 4.50786,26.34 8.63676,54.1 14.73046,78.71 12.3047,47.79 28.2774,94.04 48.2813,137.67 39.9884,87.43 93.6524,164.42 153.3004,231.62 120.106,134.39 262.489,230.79 404.25,307.55 142.387,76.51 286.879,131.24 425.178,174.34 138.75,42.3 272.04,71.4 395.55,92.35 247.24,41.62 455.22,49.3 599.87,50.9 72.45,-0.21 129.24,-0.82 167.92,-2.71 38.67,-1.41 59.31,-2.15 59.31,-2.15 0,0 -20.62,-1.32 -59.21,-3.71 -38.6,-1.96 -95.1,-6.95 -166.78,-13.89 -142.98,-15.75 -347.33,-43.9 -583.6,-108.29 -117.97,-32.27 -243.83,-73.26 -371.94,-126.66 C 966.324,3723.68 835.547,3658.38 712.73,3575.66 590.508,3493.16 473.926,3393.85 388.559,3275.87 302.82,3158.54 253.352,3023.11 262.207,2893.29 c 8.027,-130.11 71.441,-250.77 164.18,-351.86 92.789,-101.48 212.328,-182.82 335.707,-248.13 123.828,-65.5 253.796,-114.13 379.316,-152.58 126.09,-37.76 248.81,-64.04 362.97,-82.91 228.74,-37.6 423.24,-44.2 558.43,-45.22 65.79,0.57 116.04,1.22 156.88,3.09 38.66,1.39 59.31,2.13 59.31,2.13 144.56,5.24 265.97,-107.72 271.2,-252.3 5.25,-144.57 -107.73,-265.97 -252.28,-271.21 -8.63,-0.29 -17.54,-0.15 -25.96,0.35" style="opacity:1;fill:#2c49a4;fill-opacity:1;fill-rule:nonzero;stroke:none" id="path34" inkscape:connector-curvature="0"></path><path d="m 2742.54,3379.25 c 59.64,-46.38 135.83,-67.38 208.72,-67.38 83.95,0 128.12,26.51 128.12,77.32 0,94.97 -297.07,41.95 -297.07,216.43 0,93.89 72.87,184.43 241.84,184.43 68.48,0 150.22,-11.02 214.27,-60.74 l -14.36,-102.69 c -59.64,46.37 -130.32,67.37 -203.22,67.37 -76.19,0 -112.64,-23.22 -112.64,-66.3 0,-88.34 301.48,-38.61 301.48,-215.35 0,-101.63 -78.38,-196.6 -260.62,-196.6 -68.47,0 -155.7,11.08 -220.89,60.76 l 14.37,102.75" style="opacity:1;fill:#2c49a4;fill-opacity:1;fill-rule:nonzero;stroke:none" id="path36" inkscape:connector-curvature="0"></path><path d="m 3906.55,3248.92 c -24.3,-175.62 -129.22,-254.03 -308.14,-254.03 -86.12,0 -174.48,18.8 -224.19,47.46 l 14.36,104.93 c 55.22,-34.24 150.2,-54.12 207.64,-54.12 98.28,0 173.39,43.11 188.84,150.23 l 18.8,136.94 c -57.42,-100.48 -135.87,-142.45 -219.79,-142.45 -108.22,0 -154.61,60.69 -154.61,156.82 0,16.57 2.19,39.73 4.41,58.53 l 46.36,325.8 121.51,0 -43.06,-307 c -2.22,-15.51 -4.43,-34.25 -4.43,-45.32 0,-54.08 24.3,-90.55 89.45,-90.55 85.04,0 166.77,92.75 198.8,321.39 l 17.68,121.48 121.49,0 -75.12,-530.11" style="opacity:1;fill:#2c49a4;fill-opacity:1;fill-rule:nonzero;stroke:none" id="path38" inkscape:connector-curvature="0"></path><path d="m 4148.4,3379.25 c 59.63,-46.38 135.82,-67.38 208.73,-67.38 83.93,0 128.11,26.51 128.11,77.32 0,94.97 -297.07,41.95 -297.07,216.43 0,93.89 72.87,184.43 241.85,184.43 68.48,0 150.18,-11.02 214.26,-60.74 l -14.35,-102.69 c -59.65,46.37 -130.34,67.37 -203.23,67.37 -76.19,0 -112.61,-23.22 -112.61,-66.3 0,-88.34 301.48,-38.61 301.48,-215.35 0,-101.63 -78.42,-196.6 -260.66,-196.6 -68.46,0 -155.69,11.08 -220.88,60.76 l 14.37,102.75" style="opacity:1;fill:#2c49a4;fill-opacity:1;fill-rule:nonzero;stroke:none" id="path40" inkscape:connector-curvature="0"></path><path d="m 4930.3,3779.03 18.75,132.52 121.5,0 -18.79,-132.52 131.45,0 -13.26,-89.46 -131.43,0 -40.86,-291.6 c -2.21,-16.56 -4.43,-33.08 -4.43,-41.94 0,-29.8 13.26,-47.46 55.23,-47.46 23.21,0 45.29,3.3 69.59,12.15 l -12.15,-88.41 c -35.35,-11 -74.02,-16.57 -112.67,-16.57 -94.96,0 -123.67,40.89 -123.67,109.36 0,16.57 4.39,49.73 6.62,69.6 l 40.88,294.87 -82.84,0 13.27,89.46 82.81,0" style="opacity:1;fill:#2c49a4;fill-opacity:1;fill-rule:nonzero;stroke:none" id="path42" inkscape:connector-curvature="0"></path><path d="m 5740.9,3558.15 c 2.21,11 2.21,22.08 2.21,33.15 0,59.6 -24.28,106 -121.48,106 -90.57,0 -154.59,-55.25 -172.29,-139.15 l 291.56,0 z m -302.59,-80.63 c -2.21,-15.43 -2.21,-26.5 -2.21,-37.57 0,-85 57.42,-131.38 152.38,-131.38 83.95,0 167.89,25.37 229.77,80.62 l -14.38,-99.41 c -44.18,-35.35 -127.01,-74.04 -246.29,-74.04 -162.32,0 -250.7,88.4 -250.7,230.85 0,143.56 88.38,343.46 324.71,343.46 173.38,0 229.7,-91.67 229.7,-207.62 0,-37.57 -6.62,-78.4 -12.16,-104.91 l -410.82,0" style="opacity:1;fill:#2c49a4;fill-opacity:1;fill-rule:nonzero;stroke:none" id="path44" inkscape:connector-curvature="0"></path><path d="m 6216.92,3647.63 c 58.53,100.47 136.93,142.42 220.88,142.42 127.01,0 146.85,-81.69 149.08,-148 67.4,113.77 155.74,148 230.82,148 108.26,0 153.54,-60.74 153.54,-156.79 0,-16.58 -3.32,-47.52 -6.65,-66.27 l -47.46,-340.17 -121.5,0 L 6842,3557 c 2.2,16.57 4.41,34.3 4.41,45.32 0,54.1 -24.28,89.45 -89.43,89.45 -85.04,0 -166.76,-92.76 -198.81,-321.38 l -19.86,-143.57 -121.51,0 46.39,337.97 c 2.21,13.22 3.32,26.51 3.32,37.53 0,54.1 -24.28,89.45 -88.34,89.45 -86.15,0 -167.87,-92.76 -199.88,-321.38 l -19.89,-143.57 -121.48,0 77.3,552.21 121.47,0 -18.77,-131.4" style="opacity:1;fill:#2c49a4;fill-opacity:1;fill-rule:nonzero;stroke:none" id="path46" inkscape:connector-curvature="0"></path><path d="m 7162.33,3379.25 c 59.69,-46.38 135.82,-67.38 208.73,-67.38 83.94,0 128.12,26.51 128.12,77.32 0,94.97 -297.05,41.95 -297.05,216.43 0,93.89 72.87,184.43 241.84,184.43 68.5,0 150.16,-11.02 214.28,-60.74 l -14.42,-102.69 c -59.59,46.37 -130.31,67.37 -203.16,67.37 -76.21,0 -112.66,-23.22 -112.66,-66.3 0,-88.34 301.49,-38.61 301.49,-215.35 0,-101.63 -78.4,-196.6 -260.63,-196.6 -68.47,0 -155.68,11.08 -220.88,60.76 l 14.34,102.75" style="opacity:1;fill:#2c49a4;fill-opacity:1;fill-rule:nonzero;stroke:none" id="path48" inkscape:connector-curvature="0"></path></g></g></svg> 